<?xml version="1.0" standalone="no"?>
<!DOCTYPE svg PUBLIC "-//W3C//DTD SVG 20010904//EN"
 "http://www.w3.org/TR/2001/REC-SVG-20010904/DTD/svg10.dtd">
<svg version="1.0" xmlns="http://www.w3.org/2000/svg"
 width="1650.000000pt" height="1070.000000pt" viewBox="0 0 1650.000000 1070.000000"
 preserveAspectRatio="xMidYMid meet">

<g transform="translate(0.000000,1070.000000) scale(0.100000,-0.100000)"
fill="#000000" stroke="none">
<path d="M8288 9085 c-36 -6 -75 -9 -85 -7 -46 11 -337 8 -433 -4 -58 -8 -123
-14 -145 -15 -22 0 -33 -3 -25 -6 9 -4 1 -11 -25 -19 -29 -9 -34 -12 -17 -13
14 -1 22 -6 20 -13 -3 -7 -14 -13 -26 -12 -111 3 -155 6 -147 9 6 1 45 11 87
21 42 10 75 21 72 25 -3 5 -15 5 -27 0 -33 -12 -112 -23 -197 -26 -41 -1 -121
-12 -177 -24 -56 -12 -137 -24 -180 -27 -43 -3 -91 -10 -108 -14 -16 -5 -57
-12 -90 -16 -33 -3 -73 -12 -90 -18 -16 -7 -57 -14 -90 -15 -36 -1 -71 -9 -90
-20 -17 -10 -48 -21 -68 -25 -20 -4 -58 -16 -84 -28 -26 -12 -61 -25 -78 -29
-55 -14 -156 -55 -150 -61 3 -3 -15 -13 -41 -22 -56 -19 -57 -19 -49 -7 5 10
-27 7 -43 -3 -4 -2 -28 -7 -52 -11 -52 -8 -223 -102 -213 -118 4 -6 1 -7 -7
-2 -12 7 -157 -60 -172 -80 -4 -5 -8 -7 -8 -3 0 4 -15 -1 -32 -12 -18 -11 -49
-28 -68 -37 -48 -24 -251 -158 -324 -213 -32 -25 -71 -54 -86 -65 -15 -11 -41
-30 -58 -42 -16 -12 -31 -20 -34 -18 -3 3 -19 -11 -37 -30 -17 -19 -36 -35
-42 -35 -10 0 -94 -63 -114 -86 -5 -7 -30 -25 -54 -40 -24 -16 -51 -33 -59
-39 -8 -5 -41 -36 -74 -68 -32 -32 -58 -55 -58 -51 0 3 -16 -11 -35 -32 -19
-21 -35 -41 -35 -46 0 -4 -34 -41 -76 -83 -42 -41 -73 -75 -68 -75 5 0 -15
-24 -43 -52 -28 -29 -64 -73 -80 -98 -15 -25 -41 -61 -56 -81 -16 -19 -37 -58
-47 -85 -9 -28 -30 -68 -46 -90 -48 -65 -198 -245 -258 -309 -41 -43 -74 -94
-118 -182 -33 -68 -65 -123 -69 -123 -5 0 -16 -15 -25 -32 -9 -18 -28 -45 -41
-60 -15 -16 -23 -33 -20 -42 4 -10 1 -16 -8 -16 -8 0 -15 -8 -15 -18 0 -10 -8
-33 -18 -52 -10 -19 -34 -64 -53 -100 -19 -36 -41 -85 -49 -110 -8 -25 -20
-48 -26 -53 -15 -9 -136 -247 -154 -302 -7 -22 -15 -44 -19 -50 -3 -5 -6 -12
-6 -15 -6 -36 -20 -71 -38 -90 -19 -21 -32 -43 -42 -70 -1 -3 -10 -23 -19 -45
-29 -65 -41 -96 -68 -175 -14 -41 -33 -95 -42 -120 -8 -25 -30 -101 -47 -170
-18 -69 -36 -126 -41 -128 -4 -2 -8 -10 -8 -18 0 -8 -5 -14 -11 -14 -5 0 -8
-4 -4 -9 3 -5 -1 -15 -7 -23 -7 -7 -14 -26 -15 -43 -2 -44 -36 -136 -49 -131
-6 2 -19 -21 -29 -52 -32 -103 -74 -192 -133 -280 -32 -48 -65 -100 -73 -116
-14 -29 -54 -74 -94 -107 -11 -9 -29 -27 -39 -40 -107 -134 -308 -351 -342
-369 -13 -8 -24 -18 -24 -24 0 -6 -18 -26 -40 -45 -24 -20 -39 -40 -36 -48 3
-8 2 -11 -3 -8 -6 3 -20 -5 -34 -17 -39 -38 -67 -59 -95 -71 -15 -6 -41 -22
-58 -34 -31 -23 -71 -32 -59 -13 3 6 2 10 -3 10 -5 0 -12 -8 -15 -19 -2 -10
-17 -21 -33 -25 -16 -4 -36 -13 -44 -20 -8 -7 -35 -20 -60 -29 -25 -8 -75 -27
-112 -41 -37 -14 -98 -30 -135 -36 -102 -16 -124 -21 -118 -29 2 -4 -16 -12
-40 -18 -30 -7 -42 -7 -38 0 4 6 0 8 -10 4 -58 -22 -210 -70 -292 -92 -54 -14
-106 -30 -117 -36 -83 -45 -167 -127 -200 -197 -64 -134 93 -357 287 -407 86
-21 731 -16 885 7 58 9 146 19 195 23 149 11 176 15 244 35 36 11 126 27 200
35 73 9 137 17 140 19 9 6 132 22 376 51 72 8 182 22 245 30 63 8 144 17 180
20 36 3 85 7 110 10 25 2 70 7 100 9 154 14 258 29 287 41 l33 14 0 -184 c0
-259 21 -507 56 -660 18 -81 18 -125 -1 -125 -8 0 -15 -9 -15 -20 0 -11 -7
-20 -15 -20 -8 0 -15 -7 -15 -16 0 -13 -9 -14 -57 -9 -32 4 -78 11 -103 17
-25 5 -162 13 -305 18 -143 4 -267 11 -277 15 -19 8 -302 -20 -408 -40 -41 -8
-104 -19 -139 -26 -35 -7 -75 -22 -90 -33 -14 -12 -45 -34 -69 -50 -74 -50
-89 -69 -96 -122 -4 -27 -10 -58 -12 -69 -5 -23 71 -145 108 -174 35 -28 85
-51 108 -51 11 0 54 -16 95 -36 42 -19 80 -32 85 -29 12 8 201 -12 255 -27 45
-12 281 -12 347 0 54 10 156 5 185 -10 14 -7 39 -8 70 -3 26 4 118 8 203 9 85
1 211 3 280 4 69 2 139 3 155 2 26 -1 27 -3 10 -10 -13 -6 11 -8 70 -8 56 0
77 3 55 7 -19 3 54 6 162 6 108 0 195 -2 193 -5 -2 -3 96 -6 218 -7 233 -1
367 -10 367 -24 0 -11 54 -12 64 -2 11 11 98 2 112 -11 8 -9 61 -16 151 -20
76 -4 168 -9 205 -12 37 -2 69 0 72 4 3 4 38 4 78 -1 40 -4 84 -8 98 -7 119 3
557 -8 570 -15 3 -1 44 -6 93 -10 60 -4 87 -3 87 4 0 13 457 7 530 -7 25 -4
122 -7 215 -6 94 0 190 -3 215 -9 25 -5 221 -10 435 -12 215 -1 473 -3 575 -4
102 0 202 3 222 8 20 5 39 7 41 5 8 -8 167 -13 167 -6 0 9 88 0 105 -10 14 -8
302 -17 787 -23 444 -6 610 -11 648 -19 14 -3 36 -8 50 -11 50 -11 699 -7 845
4 83 7 182 11 220 10 110 -4 202 0 298 11 62 7 120 7 199 -1 62 -6 130 -8 153
-4 22 4 119 8 215 10 96 2 209 7 250 11 l75 8 -50 6 -50 5 79 9 c53 5 82 4 89
-3 6 -6 22 -11 37 -10 23 0 23 1 5 9 -36 15 10 23 83 16 105 -12 215 -10 239
2 13 7 86 14 175 17 192 6 374 27 416 49 18 9 32 14 32 12 0 -3 25 4 56 14 31
11 100 27 153 35 230 38 278 49 333 77 90 46 115 92 88 165 -15 39 -73 90
-112 98 -18 4 -48 15 -68 25 -41 21 -94 34 -86 22 3 -5 -8 -6 -25 -4 -16 2
-29 8 -29 13 0 4 -38 8 -84 8 -46 0 -127 7 -181 16 -69 11 -107 13 -132 6 -21
-6 -55 -7 -87 -1 -28 5 -87 12 -131 15 -44 3 -91 7 -105 9 -14 2 -53 6 -87 11
-67 7 -71 12 -53 61 7 18 7 37 0 58 -12 37 -21 227 -25 516 -4 294 -14 608
-21 660 -10 75 -12 84 -24 115 -13 33 -28 595 -16 595 4 0 26 -11 49 -24 23
-14 44 -25 47 -25 3 0 12 -2 20 -5 250 -87 354 -109 590 -123 170 -10 350 7
472 46 159 49 224 83 321 168 20 18 46 33 56 33 21 0 121 75 121 90 0 6 16 32
35 59 19 26 35 53 35 60 0 22 28 10 59 -24 61 -70 223 -116 269 -78 29 23 32
85 9 166 -10 32 -17 70 -17 84 0 15 -6 52 -14 82 -8 31 -19 85 -26 120 -6 35
-31 113 -56 173 -52 128 -114 314 -114 341 0 11 -4 36 -9 56 -5 20 -17 81 -27
136 -10 55 -25 118 -34 140 -18 44 -27 68 -71 195 -16 46 -35 91 -43 98 -23
23 -79 -21 -141 -112 -60 -88 -73 -133 -81 -276 -3 -62 -8 -126 -20 -235 -8
-79 -25 -155 -34 -155 -11 0 -35 39 -49 81 -6 20 -23 50 -36 65 -14 16 -25 34
-25 40 0 6 -13 29 -28 50 -15 21 -43 66 -62 99 -18 33 -52 83 -75 110 -62 75
-87 114 -80 125 4 6 11 8 16 4 17 -10 180 148 233 226 64 95 119 165 190 243
37 42 84 98 102 124 73 102 114 169 114 184 0 9 7 23 16 30 25 21 64 86 64
108 0 10 6 24 14 30 8 6 17 33 21 59 4 26 16 57 28 70 11 12 17 22 13 22 -5 0
-4 6 2 13 5 6 9 23 8 37 -2 29 8 65 62 217 22 61 52 160 66 220 15 59 31 117
37 128 14 32 40 212 44 305 1 47 -1 135 -6 195 -5 67 -5 137 1 180 10 66 8
107 -17 440 -2 33 -7 67 -10 75 -4 8 -7 17 -8 20 0 3 -6 21 -13 40 -6 19 -18
72 -26 117 -8 46 -23 95 -34 110 -11 16 -27 46 -36 68 -9 22 -26 50 -38 62
-17 18 -24 20 -39 10 -11 -7 -19 -17 -19 -24 0 -7 -5 -13 -11 -13 -5 0 -7 5
-4 10 3 6 1 10 -4 10 -6 0 -11 -3 -11 -7 -2 -45 -40 -304 -48 -323 -5 -14 -12
-44 -15 -67 -6 -40 -41 -135 -58 -158 -4 -6 -17 -43 -28 -84 -11 -40 -24 -78
-29 -85 -11 -12 -29 -68 -36 -106 -14 -83 -51 -160 -132 -276 -23 -34 -59 -92
-79 -130 -21 -38 -61 -107 -89 -154 -28 -47 -76 -134 -108 -195 -41 -79 -74
-128 -120 -175 -35 -36 -70 -76 -78 -89 -8 -12 -26 -29 -40 -36 -14 -7 -48
-36 -75 -64 -91 -93 -219 -218 -253 -246 -25 -21 -36 -24 -46 -16 -16 13 16
81 106 226 80 128 142 271 109 251 -6 -4 -11 -15 -12 -24 0 -10 -3 -12 -6 -5
-2 7 10 38 28 70 55 99 59 108 59 124 0 8 4 19 9 25 19 21 80 223 84 279 2 34
20 106 41 166 20 58 38 126 41 150 2 24 12 108 21 185 16 134 16 147 0 228
-12 58 -16 123 -14 194 5 211 -2 464 -17 557 -8 55 -37 145 -46 145 -4 0 -13
16 -19 36 -7 20 -27 61 -44 92 -18 32 -35 65 -39 75 -7 19 -47 38 -62 29 -5
-3 -5 -7 2 -9 6 -2 -1 -16 -16 -31 -26 -26 -46 -78 -92 -241 -17 -60 -73 -182
-127 -276 -16 -29 -57 -139 -82 -220 -11 -39 -32 -84 -46 -100 -31 -35 -94
-132 -94 -143 0 -4 -16 -32 -35 -62 -19 -30 -39 -71 -45 -91 -5 -20 -21 -47
-34 -60 -13 -13 -36 -49 -51 -79 -28 -56 -95 -150 -185 -262 -28 -34 -50 -66
-50 -71 0 -5 -12 -24 -27 -42 -16 -18 -49 -66 -75 -108 -46 -73 -49 -76 -75
-67 -16 4 -84 11 -153 14 -69 4 -134 8 -145 10 -11 3 -57 5 -101 5 l-81 1 -6
33 c-3 17 -21 125 -41 239 -19 113 -41 219 -49 235 -8 15 -15 45 -15 65 -1 20
-27 114 -59 210 -50 148 -61 173 -78 172 -41 -1 -92 -34 -141 -91 -58 -68
-194 -248 -194 -256 0 -4 -19 -37 -41 -74 -37 -59 -119 -220 -132 -256 -2 -7
-25 8 -58 38 -95 88 -216 195 -246 217 -108 82 -219 206 -263 294 -19 38 -47
83 -62 100 -15 17 -25 34 -22 36 3 3 -8 15 -23 27 -15 11 -32 24 -38 28 -34
26 -71 46 -94 49 -14 2 -35 5 -46 7 -11 1 -25 6 -31 9 -16 11 -53 -2 -58 -21
-19 -68 -60 -202 -70 -231 -8 -19 -16 -52 -20 -72 -4 -21 -10 -38 -14 -38 -4
1 -33 33 -65 73 -79 97 -273 294 -319 323 -20 13 -57 43 -81 66 -101 99 -329
249 -522 345 -44 22 -111 57 -150 78 -88 48 -175 83 -229 90 -22 4 -66 16 -96
27 -196 71 -378 112 -560 127 -103 9 -214 7 -254 -4 -20 -5 -27 -4 -22 3 14
23 -159 27 -276 7z m327 -109 c168 -7 289 -15 330 -22 17 -3 57 -7 90 -10 33
-3 71 -8 85 -11 14 -3 41 -7 60 -9 19 -2 44 -8 55 -13 28 -14 103 -37 145 -46
45 -9 178 -58 255 -94 33 -15 93 -43 133 -62 39 -18 72 -37 72 -42 0 -4 4 -6
9 -2 5 3 15 0 23 -7 7 -7 43 -29 81 -48 37 -19 67 -38 67 -42 0 -5 5 -8 11 -8
12 0 103 -60 107 -72 2 -4 9 -8 15 -8 7 0 25 -11 41 -25 16 -14 32 -25 35 -25
4 0 22 -15 41 -33 19 -18 40 -33 45 -35 11 -2 86 -68 198 -172 67 -62 101 -97
175 -179 17 -20 43 -47 55 -61 110 -119 105 -110 112 -190 3 -41 11 -80 17
-87 6 -7 8 -13 5 -13 -4 0 0 -18 8 -40 15 -42 7 -52 -16 -23 -8 9 -27 22 -44
30 -16 7 -43 22 -60 33 -16 11 -50 29 -75 40 -71 32 -160 79 -170 91 -3 3 -21
12 -41 22 -19 9 -44 26 -54 37 -11 12 -46 34 -80 50 -33 15 -73 41 -90 57 -16
16 -46 38 -65 48 -19 11 -43 26 -52 34 -10 7 -24 11 -33 7 -9 -3 -13 -2 -10 4
3 6 1 10 -4 10 -6 0 -11 -5 -11 -10 0 -13 -54 -4 -125 20 -80 27 -119 13 -140
-52 -10 -28 -1 -100 18 -148 6 -16 15 -96 22 -205 2 -38 8 -79 13 -90 17 -36
32 -91 32 -113 0 -11 5 -24 10 -27 6 -3 10 -15 10 -26 0 -10 5 -27 10 -37 18
-30 70 -164 70 -179 0 -11 -6 -10 -27 5 -16 11 -55 29 -88 41 -33 12 -69 26
-80 31 -42 20 -163 62 -220 76 -33 8 -68 19 -77 25 -10 5 -26 9 -36 9 -10 0
-22 4 -27 8 -6 5 -41 14 -80 22 -38 7 -74 16 -80 20 -5 5 -39 11 -75 15 -66 7
-203 -14 -223 -34 -5 -5 -10 -34 -11 -65 -1 -54 0 -57 52 -108 28 -30 52 -59
52 -65 0 -6 7 -16 15 -23 8 -6 14 -15 13 -18 -3 -16 23 -63 37 -68 9 -4 30
-27 47 -53 17 -25 43 -60 57 -78 53 -65 71 -88 71 -96 0 -8 39 -53 110 -128
19 -20 44 -47 54 -60 11 -13 33 -40 50 -60 17 -20 48 -57 69 -82 21 -25 46
-49 56 -52 16 -5 90 -99 136 -173 6 -9 22 -30 37 -47 16 -16 28 -33 28 -37 0
-11 -41 -10 -76 1 -69 22 -425 33 -539 16 -44 -7 -116 -13 -160 -14 -45 -1
-87 -3 -95 -5 -74 -14 -99 -22 -128 -38 -18 -10 -41 -18 -52 -18 -23 0 -50
-36 -50 -68 0 -35 16 -47 155 -115 43 -21 86 -46 95 -55 8 -10 53 -37 100 -61
47 -24 87 -46 90 -50 3 -3 23 -12 45 -20 22 -8 63 -29 90 -47 48 -31 95 -54
124 -60 8 -1 17 -6 20 -11 3 -4 26 -19 51 -32 25 -13 61 -32 81 -42 60 -32
189 -169 189 -201 0 -7 -26 -29 -57 -48 -32 -19 -64 -40 -71 -47 -17 -16 -53
-36 -70 -39 -28 -5 -129 -83 -209 -161 -46 -45 -103 -96 -128 -113 -25 -17
-45 -35 -45 -40 0 -6 -6 -10 -13 -10 -7 0 -50 -35 -94 -77 -65 -63 -82 -86
-87 -116 -8 -44 2 -58 57 -78 20 -7 37 -16 37 -20 0 -4 14 -6 31 -5 22 2 39
-5 54 -20 20 -20 25 -21 41 -9 24 18 34 19 34 1 0 -16 37 -28 46 -15 3 6 11 5
20 -2 11 -9 15 -8 20 4 6 17 28 16 110 -5 29 -7 48 -7 61 1 12 6 24 6 29 1 6
-6 20 -4 38 5 33 18 56 19 56 4 0 -5 4 -8 9 -5 5 3 51 11 102 16 52 6 110 13
129 16 19 2 52 1 74 -3 l39 -8 -24 -30 c-13 -17 -29 -39 -35 -50 -6 -11 -20
-22 -30 -24 -25 -5 -51 -36 -79 -96 -13 -27 -32 -56 -44 -63 -12 -7 -21 -19
-21 -27 0 -8 -4 -15 -10 -15 -5 0 -10 -7 -10 -15 0 -8 -8 -29 -18 -47 -24 -44
-34 -70 -23 -64 5 4 7 -3 4 -14 -3 -11 -9 -20 -13 -20 -11 0 -90 -159 -90
-181 0 -10 -4 -20 -8 -23 -7 -4 -28 -96 -36 -158 -1 -10 -5 -21 -9 -24 -16
-17 -6 -71 16 -91 35 -30 64 -34 135 -17 44 10 114 15 221 14 182 -1 249 3
311 19 25 7 74 18 110 26 36 8 76 19 90 24 32 11 90 27 160 43 30 7 69 20 85
28 17 9 43 20 58 24 27 7 28 6 24 -36 -2 -24 -7 -50 -10 -58 -4 -8 -8 -53 -11
-100 -3 -47 -10 -130 -16 -185 -17 -162 -13 -281 10 -310 5 -6 10 -40 13 -77
2 -44 10 -76 23 -94 10 -14 24 -35 30 -45 6 -11 13 -17 15 -14 3 2 20 7 39 10
19 3 42 15 50 27 25 34 73 80 135 128 32 25 84 68 114 96 31 28 79 66 106 84
28 19 66 46 85 61 41 33 146 89 165 89 27 0 252 123 275 150 3 3 20 17 39 30
19 13 46 35 60 49 14 14 55 52 91 85 36 32 89 81 117 110 43 42 53 47 53 31 0
-12 4 -25 9 -30 6 -6 13 -62 16 -125 4 -63 10 -119 13 -124 3 -6 7 -107 8
-225 1 -119 3 -218 3 -220 1 -2 7 2 15 8 21 17 27 -84 6 -104 -8 -9 -10 -15
-3 -15 6 0 16 -13 22 -28 7 -16 17 -29 24 -30 7 -1 24 -4 39 -8 24 -5 34 1 77
47 28 30 50 59 51 66 0 6 3 13 8 15 4 2 31 32 61 68 56 68 170 180 182 180 16
0 137 133 157 173 12 23 33 54 47 67 14 13 25 29 25 36 0 7 8 19 18 26 26 19
98 102 104 119 4 11 13 9 44 -12 79 -52 124 -79 131 -79 5 0 19 -9 32 -19 l23
-18 6 -469 c5 -496 6 -610 3 -846 l-1 -147 -49 30 c-48 30 -50 30 -122 21 -70
-9 -138 -29 -149 -44 -3 -3 -31 -18 -62 -32 -55 -25 -60 -30 -98 -108 -22 -45
-40 -88 -40 -95 0 -7 -4 -13 -9 -13 -5 0 -12 -16 -16 -36 -3 -20 -8 -34 -10
-32 -3 2 -11 34 -18 70 -8 37 -21 74 -30 82 -8 9 -18 35 -22 58 -4 24 -18 68
-32 98 -14 30 -26 60 -28 65 -14 61 -52 100 -148 154 -40 23 -150 30 -162 11
-3 -5 -15 -10 -25 -10 -10 0 -20 -4 -22 -8 -2 -5 -31 -27 -65 -50 -58 -40 -93
-82 -93 -115 0 -7 -8 -31 -18 -53 -10 -21 -23 -50 -30 -64 -8 -18 -11 -20 -11
-7 -1 9 -5 17 -10 17 -5 0 -13 9 -16 20 -7 21 -107 146 -135 167 -46 35 -270
78 -335 63 -19 -4 -36 -6 -38 -4 -2 3 -10 -2 -17 -11 -7 -8 -19 -15 -27 -15
-34 0 -163 -153 -163 -193 0 -7 -8 -31 -19 -53 -10 -21 -21 -56 -24 -77 -3
-21 -12 -50 -19 -65 -7 -15 -15 -45 -17 -67 -6 -76 -12 -49 -11 50 0 55 -2
116 -5 135 -10 63 -15 368 -6 391 11 30 -17 79 -45 79 -11 0 -37 -16 -58 -35
-21 -19 -41 -35 -45 -36 -22 -2 -66 -12 -131 -29 -245 -62 -327 -80 -370 -80
-27 0 -61 -5 -77 -11 -15 -6 -53 -13 -83 -14 -30 -2 -129 -9 -220 -15 -91 -6
-178 -12 -195 -12 -16 -1 -169 9 -340 21 -170 12 -348 24 -395 27 -47 2 -110
9 -140 14 -31 6 -237 13 -470 15 -399 4 -685 14 -685 25 0 1 -13 4 -29 6 -16
3 -41 11 -56 19 -15 8 -56 19 -91 26 -35 6 -77 13 -93 16 -17 3 -31 1 -36 -7
-5 -9 -26 -6 -86 13 -44 14 -97 28 -119 32 -22 4 -44 10 -50 14 -5 3 -14 6
-20 7 -5 1 -58 16 -116 33 -58 17 -122 31 -142 31 -20 0 -38 4 -41 9 -3 4 -27
14 -53 21 -27 6 -57 16 -68 20 -11 5 -49 11 -85 13 -36 3 -78 11 -95 17 -16 7
-37 14 -45 16 -8 2 -31 6 -50 10 -19 4 -48 6 -64 5 -16 -2 -73 3 -126 10 -85
10 -103 10 -145 -5 -27 -9 -70 -16 -97 -16 -43 0 -50 -3 -67 -31 -11 -17 -18
-41 -16 -53 2 -11 6 -57 10 -101 3 -44 8 -88 11 -98 3 -10 0 -24 -6 -32 -7 -9
-9 -26 -4 -47 9 -43 12 -98 4 -98 -3 0 -21 26 -40 58 -52 87 -72 114 -109 150
-28 27 -42 32 -85 34 -78 3 -129 0 -135 -10 -3 -5 -14 -11 -23 -15 -10 -3 -18
-13 -18 -22 0 -14 -11 -19 -38 -16 -6 1 -16 -9 -21 -23 -6 -13 -15 -27 -20
-31 -12 -7 -51 -87 -51 -103 0 -5 -9 -29 -20 -54 -10 -24 -23 -68 -28 -98 -11
-65 -41 -189 -52 -210 -4 -9 -13 -49 -21 -90 -11 -64 -14 -71 -20 -45 -4 17
-7 51 -8 77 0 26 -6 59 -12 75 -5 15 -12 79 -15 142 -8 190 -4 177 -80 312 -6
11 -15 23 -19 27 -5 4 -5 0 0 -8 5 -9 5 -12 -1 -7 -5 5 -10 13 -10 18 -1 5 -2
12 -3 17 0 4 -11 18 -24 32 -52 58 -74 70 -127 76 -29 3 -57 7 -62 10 -18 11
-97 -36 -154 -94 -83 -82 -124 -171 -138 -302 -3 -25 -7 -56 -10 -70 -3 -14
-8 -43 -11 -65 l-7 -40 -23 50 c-13 28 -24 65 -24 84 -1 18 -12 54 -25 80 -13
26 -26 68 -30 94 -6 38 -15 53 -53 87 -25 22 -51 40 -57 41 -19 0 -58 57 -45
64 6 5 -7 18 -33 33 -33 19 -57 25 -104 25 -33 0 -69 -3 -80 -8 -10 -4 -21 -9
-24 -10 -54 -20 -70 -28 -70 -34 0 -4 -8 -16 -18 -27 -75 -81 -93 -172 -87
-423 4 -157 -6 -263 -27 -288 -9 -12 -37 -1 -104 43 -13 9 -24 13 -24 8 0 -23
-21 18 -24 47 -2 19 -11 63 -19 99 -9 36 -20 94 -26 130 -14 88 -40 492 -45
720 -3 102 -10 235 -17 296 -9 88 -9 172 1 395 21 493 21 519 5 690 -19 203
-19 745 1 889 16 122 20 328 5 343 -7 7 -12 5 -18 -9 -3 -10 -19 -30 -34 -44
-23 -21 -28 -36 -34 -95 -3 -38 -12 -92 -20 -120 -7 -27 -16 -120 -19 -205 -3
-85 -8 -174 -9 -197 -2 -24 -1 -43 2 -43 3 0 7 -21 7 -47 1 -27 5 -133 9 -238
9 -198 10 -344 5 -930 -1 -192 1 -412 5 -487 l7 -138 -125 0 c-69 0 -128 -4
-132 -9 -3 -5 -46 -10 -96 -10 -49 0 -94 -3 -99 -6 -5 -3 -56 -8 -112 -10 -57
-3 -132 -9 -168 -14 -36 -6 -91 -13 -124 -15 -32 -3 -83 -10 -115 -16 -31 -5
-110 -17 -176 -25 -66 -9 -142 -20 -170 -25 -27 -5 -97 -14 -155 -21 -58 -6
-127 -18 -155 -26 -59 -17 -63 -18 -185 -32 -52 -6 -131 -16 -175 -21 -44 -5
-105 -13 -135 -16 -62 -8 -313 -13 -618 -14 -223 0 -241 4 -306 60 -34 30 -99
114 -102 133 -1 4 -2 10 -4 15 -1 4 -1 25 0 47 2 48 22 82 58 97 15 7 39 20
53 30 15 10 35 19 45 21 11 2 26 6 34 10 8 3 47 15 85 27 39 13 79 26 90 31
11 5 31 10 45 12 14 2 34 7 45 11 50 19 73 25 115 30 82 10 115 17 178 37 34
12 68 22 75 23 7 1 51 21 99 45 48 23 105 45 125 48 21 3 50 14 65 24 14 11
29 19 33 19 3 0 26 14 50 30 24 17 46 30 49 30 8 0 98 62 121 83 11 10 44 34
73 53 28 19 52 41 52 48 0 7 61 71 135 142 75 71 148 147 162 169 15 22 52 69
83 105 31 36 74 90 95 120 21 30 60 83 86 117 57 75 156 257 182 333 10 30 29
78 43 106 13 28 28 71 33 95 9 43 62 204 81 244 5 11 14 40 21 65 6 25 21 70
34 100 13 30 26 76 30 101 4 29 21 68 45 102 21 31 41 73 45 94 4 21 11 43 15
48 5 6 11 22 13 35 4 23 75 165 142 285 62 110 92 173 114 240 12 39 28 77 35
85 14 16 71 126 102 195 17 38 54 94 81 123 17 18 83 131 83 142 0 4 3 10 8
12 4 2 33 41 65 88 32 47 76 105 98 130 22 25 61 74 87 110 26 36 50 70 54 75
41 51 78 106 93 135 10 18 24 40 31 48 8 7 27 30 42 50 15 21 35 46 45 56 20
23 23 51 5 40 -9 -5 -9 -2 1 9 15 19 26 23 15 5 -4 -7 -3 -8 4 -4 6 4 8 14 5
22 -4 11 0 15 13 12 14 -2 19 3 19 19 1 21 44 74 46 56 0 -4 3 0 7 9 10 24
273 288 282 283 4 -3 15 4 25 15 10 12 13 20 7 20 -7 0 -12 -4 -12 -10 0 -5
-5 -10 -11 -10 -8 0 -7 5 1 15 7 9 20 13 29 10 17 -5 81 43 81 61 0 20 75 74
103 74 8 0 73 48 145 108 131 107 245 191 292 216 51 26 196 125 215 146 19
20 57 40 135 70 40 15 160 78 174 91 6 5 16 9 24 9 8 0 34 14 59 30 24 17 48
30 53 30 4 0 10 4 12 9 2 6 25 13 52 16 26 4 62 13 80 20 17 7 47 16 66 19 19
3 61 12 93 21 32 8 65 15 73 15 9 0 28 9 43 19 15 11 45 23 66 26 22 4 56 16
77 26 20 10 56 21 80 24 23 4 70 12 103 20 33 7 67 13 75 13 8 0 31 2 50 5 19
4 55 8 80 11 25 4 88 13 140 21 52 8 127 20 165 26 39 6 84 14 100 19 17 5 59
11 95 13 36 3 92 10 124 17 32 6 77 9 99 7 22 -3 77 2 121 9 45 8 88 14 96 13
8 -1 20 -1 25 0 6 0 100 3 209 6 110 3 201 6 202 8 3 3 129 0 309 -7z m5625
-132 c0 -7 9 -29 19 -48 23 -40 45 -297 35 -406 -13 -146 -12 -356 2 -430 30
-163 -3 -456 -79 -690 -8 -25 -20 -65 -27 -90 -7 -25 -16 -58 -21 -74 -5 -16
-9 -42 -9 -57 0 -15 -4 -30 -9 -33 -4 -3 -14 -26 -21 -51 -7 -25 -17 -45 -21
-45 -5 0 -9 -9 -9 -19 0 -11 -4 -21 -8 -23 -11 -4 -45 -80 -71 -158 -12 -36
-43 -108 -68 -160 -55 -116 -85 -180 -112 -242 -47 -108 -63 -135 -99 -165
-105 -91 -130 -111 -162 -134 -19 -13 -54 -43 -78 -66 -23 -24 -46 -43 -50
-43 -4 0 -27 -18 -51 -40 -24 -22 -47 -40 -51 -40 -13 0 -156 -145 -175 -177
-10 -18 -27 -34 -37 -36 -11 -3 -18 -14 -18 -31 0 -29 19 -27 55 5 35 30 227
70 222 45 -1 -6 9 -10 23 -9 75 5 100 5 150 -1 30 -4 67 -12 82 -17 37 -15 73
-8 72 14 -1 9 2 17 7 17 5 0 9 8 9 19 0 36 -85 54 -252 55 -65 1 -118 4 -118
7 0 4 19 19 43 34 44 30 87 73 87 90 0 6 16 21 34 35 19 14 41 37 50 51 13 23
59 49 53 30 -4 -12 14 -11 43 4 16 8 41 31 56 50 22 30 81 75 97 75 7 0 19
-43 18 -65 -1 -12 10 -34 24 -50 14 -17 25 -38 25 -47 0 -9 13 -37 30 -61 19
-29 29 -56 28 -78 0 -19 9 -50 20 -71 11 -20 19 -38 16 -41 -2 -2 2 -10 11
-17 8 -7 15 -22 15 -34 0 -11 9 -32 20 -46 11 -14 20 -37 20 -52 0 -15 14 -50
30 -78 17 -28 30 -55 30 -60 0 -6 3 -10 8 -10 4 0 18 -17 32 -38 14 -20 30
-40 37 -45 14 -9 63 -94 66 -116 4 -24 38 -91 46 -91 4 0 7 -10 8 -21 1 -12
10 -30 19 -40 9 -11 14 -19 10 -19 -4 0 2 -9 12 -20 10 -11 25 -40 33 -63 8
-23 25 -54 39 -69 14 -14 26 -36 27 -49 2 -24 57 -86 85 -95 10 -3 18 -10 18
-16 0 -6 18 -29 40 -50 22 -22 40 -44 40 -50 0 -14 66 -74 102 -91 73 -36 103
10 143 223 8 41 17 84 19 95 24 90 35 151 40 215 6 73 49 200 68 200 4 0 9
-13 9 -30 2 -32 3 -37 12 -60 3 -8 8 -46 11 -83 2 -40 10 -75 19 -85 14 -16
25 -64 31 -142 2 -19 5 -36 6 -37 1 -2 4 -7 5 -13 1 -5 3 -11 5 -12 1 -2 4
-16 6 -33 14 -101 26 -158 39 -182 19 -37 29 -66 26 -77 -1 -4 3 -13 8 -20 5
-6 12 -23 14 -36 2 -14 6 -32 9 -40 33 -94 68 -213 68 -230 0 -11 9 -49 19
-83 11 -34 22 -88 25 -121 4 -35 14 -68 26 -84 11 -13 20 -28 20 -33 0 -20
-68 15 -110 56 -25 25 -51 45 -57 45 -6 0 -14 9 -18 19 -3 11 -19 22 -35 26
-17 4 -32 11 -35 16 -14 21 -46 8 -62 -26 -9 -20 -21 -31 -27 -27 -6 3 -18 7
-26 8 -30 5 -198 41 -255 56 -70 18 -195 71 -265 113 -50 30 -117 53 -175 59
-27 2 -77 12 -110 21 -33 9 -64 18 -70 19 -16 4 -46 16 -95 36 -45 19 -84 32
-108 36 -8 1 -45 19 -83 39 -101 53 -174 72 -411 105 -31 4 -71 15 -89 24 -17
9 -41 16 -52 16 -19 0 -81 15 -122 29 -19 7 -57 26 -225 112 -41 22 -88 39
-104 39 -36 0 -98 17 -153 41 -24 11 -47 19 -53 19 -5 0 -25 9 -45 20 -20 11
-44 20 -53 20 -10 0 -24 6 -30 12 -9 9 -15 10 -20 2 -4 -7 -27 -11 -52 -10
-58 1 -66 -12 -16 -29 21 -8 42 -17 45 -22 7 -9 38 -24 89 -43 17 -7 32 -17
32 -23 0 -6 3 -7 7 -4 3 4 11 3 17 -2 7 -6 23 -12 36 -15 14 -3 51 -15 83 -26
32 -12 72 -20 88 -18 21 3 29 0 29 -10 0 -9 3 -13 6 -9 3 3 31 -10 62 -28 79
-46 132 -69 241 -105 51 -18 107 -40 125 -50 17 -10 65 -28 106 -39 41 -11 95
-27 120 -36 25 -10 74 -21 110 -25 36 -5 87 -12 115 -16 27 -4 77 -19 110 -35
33 -15 83 -35 110 -44 28 -9 64 -22 80 -30 50 -21 86 -32 180 -55 50 -12 97
-24 105 -27 8 -3 20 -7 25 -8 6 -2 33 -13 60 -25 28 -12 60 -26 73 -31 12 -5
32 -13 45 -18 12 -5 29 -12 37 -14 8 -3 53 -22 100 -41 46 -20 97 -36 112 -36
15 0 29 -4 32 -8 2 -4 19 -9 37 -10 17 -1 54 -10 80 -18 45 -15 48 -18 35 -35
-7 -11 -34 -34 -59 -52 -26 -18 -70 -55 -99 -83 -52 -48 -157 -107 -208 -117
-32 -7 -57 -13 -106 -26 -167 -44 -308 -56 -399 -33 -27 7 -81 15 -120 18 -38
3 -110 17 -160 31 -49 13 -110 28 -135 33 -47 9 -113 31 -165 54 -16 7 -70 30
-120 51 -133 55 -152 65 -203 118 -26 27 -64 62 -86 78 -35 26 -40 27 -65 15
-14 -8 -41 -31 -58 -53 -18 -21 -46 -54 -63 -73 -16 -19 -30 -38 -30 -41 0 -6
-22 -33 -75 -90 -18 -19 -36 -46 -40 -60 -21 -70 -84 -155 -137 -185 -9 -5
-56 -48 -106 -95 -80 -77 -177 -202 -195 -253 -4 -10 -9 -17 -12 -15 -12 13
-12 70 0 147 17 99 20 222 6 222 -6 0 -10 63 -10 147 1 89 -5 174 -13 213 -8
36 -13 105 -12 153 2 95 -2 104 -56 132 -29 15 -29 14 -45 -19 -9 -19 -33 -47
-53 -63 -21 -15 -45 -38 -55 -50 -10 -12 -34 -30 -53 -39 -19 -9 -34 -20 -34
-25 0 -5 -6 -9 -13 -9 -14 0 -87 -68 -87 -81 0 -21 -86 -108 -127 -129 -15 -8
-32 -18 -38 -23 -69 -52 -112 -80 -170 -111 -39 -20 -83 -45 -100 -56 -16 -10
-37 -19 -47 -19 -9 -1 -18 -5 -20 -9 -1 -4 -29 -20 -61 -36 -32 -15 -69 -39
-82 -52 -13 -13 -27 -24 -30 -24 -8 0 -93 -59 -113 -77 -7 -7 -16 -13 -20 -13
-4 0 -28 -20 -54 -45 -27 -25 -51 -45 -54 -45 -3 0 -26 -13 -50 -29 -24 -17
-45 -27 -47 -23 -2 4 -5 36 -6 72 -1 36 -4 88 -7 116 -3 27 2 108 11 180 10
71 18 177 19 236 0 58 4 110 9 114 4 4 7 31 7 60 0 42 -5 59 -26 83 -30 36
-39 37 -91 12 -64 -31 -113 -42 -213 -44 -93 -2 -97 -4 -210 -59 -156 -76
-241 -91 -443 -76 -65 4 -84 2 -114 -14 -19 -11 -52 -20 -72 -21 -20 -1 -41
-6 -48 -10 -13 -8 31 129 58 183 40 78 62 116 79 135 10 11 32 47 50 80 41 74
79 131 137 202 25 30 55 76 68 102 13 26 50 76 82 110 60 66 95 125 86 147 -7
19 -60 33 -123 34 -126 3 -342 -10 -435 -25 -145 -25 -438 -22 -509 4 -20 8
-19 9 5 22 32 17 113 86 182 155 29 28 77 71 108 95 51 40 136 107 182 145 9
8 19 14 22 14 9 0 165 123 165 130 0 4 20 20 45 36 45 28 46 29 49 102 1 9 -6
17 -14 17 -17 0 -47 29 -55 54 -2 9 -15 21 -27 26 -20 9 -79 80 -95 115 -14
31 -63 62 -138 90 -21 7 -132 59 -200 94 -64 32 -87 44 -130 64 -78 38 -204
109 -225 127 -14 12 -75 41 -125 60 l-20 7 20 8 c11 4 74 10 141 13 66 4 127
8 135 11 44 14 380 23 400 10 4 -2 54 -7 111 -10 232 -13 231 -14 249 35 6 16
6 36 -2 60 -13 40 -65 124 -97 158 -12 11 -36 50 -55 86 -31 60 -75 114 -158
196 -20 20 -53 61 -74 91 -21 30 -52 71 -69 90 -18 20 -50 64 -71 100 -22 35
-80 105 -128 155 -48 51 -102 115 -120 144 -18 29 -48 71 -69 94 -20 23 -34
45 -32 49 7 12 142 10 149 -2 3 -5 17 -10 30 -10 13 0 27 -4 30 -10 3 -5 17
-10 30 -10 13 0 27 -4 30 -10 3 -5 17 -10 30 -10 13 0 26 -4 29 -9 5 -7 25
-14 86 -27 8 -1 23 -7 35 -12 11 -5 41 -19 68 -31 26 -11 55 -21 64 -21 18 0
85 -22 93 -30 3 -3 25 -12 50 -19 61 -18 130 -52 130 -64 0 -6 3 -8 6 -5 5 6
60 -26 91 -51 6 -6 23 -11 38 -13 43 -5 52 19 36 94 -7 35 -15 81 -17 102 -2
22 -20 94 -39 160 -19 67 -36 132 -39 146 -12 66 -29 136 -36 150 -4 8 -11 35
-14 60 -15 109 -26 161 -40 189 -9 16 -16 39 -16 49 0 18 4 19 43 11 50 -12
187 -79 187 -93 0 -5 3 -7 6 -3 3 3 28 -10 55 -29 27 -19 55 -34 63 -34 7 0
24 -8 37 -19 13 -10 62 -38 109 -61 47 -23 87 -45 90 -49 3 -3 43 -26 90 -50
47 -24 87 -46 90 -50 3 -3 25 -17 49 -30 24 -13 60 -39 80 -58 19 -18 38 -33
42 -33 3 0 19 -11 34 -24 15 -13 39 -30 53 -37 22 -12 26 -11 44 11 14 18 18
32 13 55 -12 57 -23 148 -31 270 -5 65 -2 118 9 181 9 49 19 111 23 138 8 65
27 129 40 133 5 2 19 -5 30 -14 11 -10 27 -22 36 -28 75 -49 98 -67 98 -79 0
-7 9 -21 20 -31 11 -10 20 -22 20 -26 0 -4 14 -28 30 -52 17 -25 30 -48 30
-51 0 -3 23 -29 50 -57 28 -28 50 -55 50 -60 0 -11 51 -58 63 -59 4 0 22 -13
40 -29 33 -31 51 -49 154 -156 34 -36 65 -65 70 -65 4 0 24 -15 43 -33 46 -42
130 -74 145 -54 5 8 20 27 33 43 12 16 47 70 76 121 63 106 161 250 186 273 3
3 17 21 30 40 14 19 32 44 42 54 10 11 18 25 18 30 1 17 59 83 61 69 2 -18 4
-24 16 -54 6 -14 14 -48 18 -75 7 -46 23 -112 43 -179 5 -16 8 -38 6 -47 -1
-10 2 -20 7 -24 5 -3 9 -20 9 -38 0 -17 4 -36 9 -41 5 -6 11 -26 14 -45 3 -19
7 -46 10 -60 3 -14 11 -68 17 -120 24 -197 48 -225 190 -229 92 -3 155 -7 240
-18 36 -4 82 -8 103 -7 42 0 46 -5 16 -26 -12 -8 -85 -76 -161 -150 -77 -74
-151 -145 -164 -157 -13 -13 -27 -23 -32 -23 -5 0 -17 -9 -27 -20 -10 -11 -22
-20 -27 -20 -5 0 -37 -18 -70 -40 -34 -22 -67 -40 -73 -40 -6 0 -20 -8 -31
-17 -23 -22 -77 -57 -164 -109 -36 -22 -66 -42 -68 -46 -2 -5 -8 -8 -14 -8 -6
0 -30 -14 -55 -31 -25 -16 -82 -48 -127 -71 -44 -22 -88 -48 -96 -57 -8 -10
-31 -23 -50 -31 -19 -8 -37 -16 -40 -19 -11 -13 -96 -51 -112 -51 -9 0 -19 -4
-22 -8 -2 -4 -18 -9 -34 -10 -48 -4 -107 -28 -110 -45 -3 -14 6 -17 52 -17 53
0 185 29 224 49 9 5 35 17 58 26 23 9 52 27 65 39 24 22 121 66 145 66 22 0
73 34 85 57 7 12 17 24 23 27 112 49 184 76 198 76 9 0 20 5 23 10 3 6 14 10
23 10 10 0 33 13 52 28 19 16 53 39 75 52 22 13 52 33 66 44 14 12 41 32 59
46 19 14 43 35 54 48 11 12 24 22 29 22 13 0 474 467 522 528 22 29 50 62 62
74 31 32 72 116 68 139 -3 12 11 33 37 58 40 39 49 51 88 126 11 22 24 47 29
55 5 8 26 52 47 98 20 45 40 82 44 82 4 0 13 12 21 28 8 15 28 47 44 71 17 23
35 50 40 60 6 9 24 37 41 62 18 25 35 56 39 70 4 13 16 35 26 49 10 14 37 70
59 125 51 124 77 179 110 230 32 48 47 88 54 135 5 37 29 115 52 167 8 17 14
37 14 45 0 7 7 0 15 -16 8 -15 15 -34 15 -42z m1020 -584 c0 -16 4 -39 9 -53
5 -13 10 -41 12 -63 1 -21 5 -43 8 -49 12 -22 30 -102 31 -137 0 -20 5 -40 11
-44 6 -3 9 -20 6 -38 -3 -17 0 -71 5 -121 12 -107 12 -121 1 -205 -8 -62 -8
-131 -4 -384 4 -217 -54 -509 -130 -658 -5 -10 -9 -25 -9 -33 0 -9 -9 -45 -21
-81 -11 -35 -22 -70 -23 -77 -2 -6 -5 -19 -8 -27 -3 -8 -14 -42 -23 -75 -23
-78 -62 -165 -83 -185 -20 -18 -142 -186 -142 -195 0 -15 -88 -135 -138 -187
-30 -31 -61 -67 -70 -80 -9 -13 -29 -36 -44 -53 -15 -16 -28 -36 -28 -42 0 -7
-4 -13 -10 -13 -5 0 -10 -7 -10 -16 0 -32 -76 -119 -171 -196 -45 -36 -46 -36
-62 -17 -10 10 -17 25 -17 33 0 7 -8 24 -17 37 -23 31 -34 50 -94 168 -27 53
-56 101 -64 107 -8 6 -15 17 -15 24 0 6 -13 37 -30 67 -16 30 -30 60 -30 68 0
7 -22 60 -48 117 -71 151 -82 175 -82 185 0 5 -11 20 -25 33 -27 25 -33 50
-12 50 17 0 72 29 128 67 45 31 91 79 139 144 27 37 30 40 204 204 64 60 116
115 116 123 0 7 13 27 30 45 16 18 30 35 30 39 0 4 12 24 26 45 14 21 33 54
42 73 9 19 22 41 29 48 7 7 13 17 13 22 0 5 11 20 24 33 51 51 90 124 149 277
12 30 34 69 50 85 16 17 26 23 22 15 -12 -23 6 -3 21 22 53 96 104 215 104
244 0 57 20 132 45 166 30 41 52 88 59 125 15 82 32 123 64 164 8 11 13 54 13
127 1 62 5 109 10 106 5 -3 9 -18 9 -34z m-297 -3021 c-8 -16 -17 -28 -20 -25
-6 5 23 56 31 56 3 0 -2 -14 -11 -31z m-1945 -685 c30 -14 51 -34 37 -34 -3 0
-23 11 -43 25 -42 29 -39 32 6 9z m200 -95 c46 -17 82 -33 80 -35 -2 -2 -40
10 -84 27 -43 17 -94 35 -111 40 -18 6 -33 16 -33 24 0 11 7 10 33 -5 17 -10
69 -33 115 -51z m1599 -515 c-3 -3 -12 -4 -19 -1 -8 3 -5 6 6 6 11 1 17 -2 13
-5z m-12762 -328 c-25 -25 -80 -66 -88 -66 -3 0 7 14 21 30 15 17 32 30 38 30
6 0 17 7 24 15 7 8 16 15 21 15 4 0 -3 -11 -16 -24z m8895 -531 c-7 -9 -15
-13 -17 -11 -7 7 7 26 19 26 6 0 6 -6 -2 -15z m1313 -75 c3 -11 2 -18 -3 -15
-4 3 -10 14 -13 25 -3 11 -2 18 3 15 4 -3 10 -14 13 -25z m-8486 -302 c-3 -8
-6 -5 -6 6 -1 11 2 17 5 13 3 -3 4 -12 1 -19z m2758 -127 c39 -5 79 -11 90
-14 36 -11 99 -26 170 -41 39 -7 108 -24 155 -36 47 -12 92 -23 100 -25 8 -2
42 -11 75 -20 56 -15 122 -28 205 -40 19 -3 62 -13 95 -23 l60 -19 -3 -49 c-1
-27 -7 -50 -12 -52 -15 -5 -12 -72 3 -72 9 0 9 -2 0 -8 -21 -14 -26 -78 -8
-115 9 -20 15 -44 12 -54 -5 -21 -6 -17 -28 57 -7 25 -18 52 -24 60 -6 8 -17
29 -24 46 -29 74 -194 198 -287 216 -33 6 -63 15 -68 19 -6 5 -36 9 -69 9 -58
0 -59 0 -125 -62 -91 -87 -103 -100 -98 -121 2 -9 0 -15 -5 -11 -5 3 -9 -10
-9 -28 0 -33 -20 -101 -33 -114 -4 -4 -7 -16 -7 -26 0 -17 -2 -18 -15 -4 -8 8
-15 20 -15 26 0 24 -44 95 -86 139 -24 25 -44 49 -44 52 0 10 -61 33 -83 31
-11 0 -32 5 -47 13 -15 8 -50 17 -79 21 -43 5 -51 10 -45 23 11 27 13 61 3 67
-5 3 -9 44 -9 91 l0 86 93 -7 c50 -4 124 -10 162 -15z m-1380 -162 c40 -22 93
-84 123 -145 10 -19 22 -34 29 -34 22 0 30 -34 37 -155 3 -66 9 -156 11 -200
3 -48 2 -72 -3 -60 -8 18 -9 18 -14 -6 -2 -13 6 -56 19 -94 30 -87 48 -154 42
-159 -8 -8 -174 -10 -269 -3 -104 7 -147 13 -200 28 -19 5 -58 9 -86 9 l-52 0
15 63 c8 34 26 107 40 162 14 55 28 123 30 150 6 81 43 266 60 299 22 43 103
135 133 151 34 19 39 18 85 -6z m-680 -83 c69 -71 98 -135 122 -274 8 -47 21
-95 28 -106 7 -12 18 -52 25 -90 6 -38 16 -79 23 -90 6 -12 10 -27 9 -34 -2
-7 5 -34 14 -59 17 -44 17 -46 -1 -59 -10 -8 -26 -12 -34 -9 -28 8 -144 24
-221 30 -41 3 -88 8 -105 11 -16 3 -39 7 -50 9 -11 2 -36 4 -55 4 -59 2 -65
11 -51 78 6 32 16 137 22 233 14 262 24 327 54 366 27 36 103 67 140 58 11 -3
47 -33 80 -68z m1487 -4 c53 -57 124 -198 163 -327 15 -49 32 -96 38 -103 5
-6 10 -32 11 -57 1 -25 4 -47 7 -49 3 -3 2 -32 -1 -65 -3 -33 -2 -68 1 -78 12
-28 10 -111 -2 -118 -11 -8 -284 -9 -297 -2 -4 3 -54 1 -112 -2 -58 -4 -121
-4 -140 0 -19 4 -51 10 -71 13 l-36 6 13 68 c8 37 18 78 23 92 19 54 70 245
87 325 2 11 6 38 8 61 2 23 16 63 30 90 15 27 31 68 36 91 14 56 82 103 150
103 43 0 51 -4 92 -48z m5109 8 c5 0 9 -4 9 -10 0 -5 -6 -10 -14 -10 -8 0 -18
-5 -21 -10 -4 -6 -3 -10 2 -9 35 6 45 -21 17 -52 -25 -27 -24 -79 2 -219 4
-19 6 -56 5 -82 -1 -30 4 -51 14 -62 19 -19 12 -36 -13 -31 -9 2 -22 4 -29 4
-7 1 -21 20 -31 44 -10 23 -35 58 -56 77 -20 19 -61 58 -89 85 -29 28 -66 57
-82 65 -17 8 -36 20 -43 27 -6 6 -23 10 -36 7 -14 -2 -28 0 -31 6 -3 5 -16 10
-28 10 -22 -1 -22 -1 -3 -15 22 -16 10 -20 -14 -5 -8 5 -11 12 -7 16 10 10
-22 44 -41 44 -30 0 -4 10 39 15 71 8 350 91 407 121 24 12 27 12 30 -1 2 -8
8 -15 13 -15z m-3376 -20 c27 -6 72 -17 100 -25 104 -29 361 -47 725 -50 365
-3 518 -10 605 -25 77 -13 313 -27 590 -35 77 -2 188 -7 248 -11 105 -7 108
-8 113 -33 3 -14 10 -39 14 -56 12 -40 25 -154 22 -183 -2 -13 2 -30 8 -37 8
-10 7 -16 -6 -23 -14 -8 -15 -14 -5 -45 9 -27 23 -41 60 -60 43 -23 52 -24
112 -16 35 5 93 12 129 14 135 11 309 26 328 30 11 2 69 6 129 10 59 3 132 8
161 11 l52 5 0 -59 0 -60 -107 -6 c-60 -4 -146 -11 -193 -16 -163 -18 -486
-33 -634 -30 -22 0 -43 -5 -47 -12 -6 -10 -15 -10 -39 -1 -20 7 -32 8 -36 1
-4 -6 -9 -5 -15 3 -9 15 -194 22 -627 23 -149 1 -272 3 -272 6 0 12 -492 2
-536 -10 -47 -13 -168 -6 -329 21 -33 5 -118 12 -190 14 -71 2 -188 10 -260
18 -71 7 -158 13 -192 13 -35 -1 -63 0 -63 2 0 1 4 10 9 20 16 30 34 129 26
142 -10 17 -18 368 -10 436 l6 52 37 -9 c20 -5 59 -14 87 -19z m-439 -31 c3
-5 14 -9 25 -9 10 0 19 -4 19 -10 0 -14 -31 -13 -63 3 -31 14 -37 38 -7 30 11
-3 23 -9 26 -14z m5124 -25 c37 -19 63 -42 93 -84 23 -33 47 -59 53 -59 7 -1
11 -9 10 -18 0 -10 4 -17 10 -16 6 1 17 -17 24 -40 7 -23 17 -55 23 -70 5 -15
10 -46 10 -68 0 -22 3 -42 8 -45 4 -2 6 -11 3 -18 -3 -8 2 -35 10 -60 9 -26
16 -60 16 -76 0 -17 5 -30 10 -30 6 0 10 -6 10 -14 0 -20 -288 -35 -445 -22
-132 10 -138 13 -131 49 3 18 8 61 12 97 6 58 24 178 40 265 4 17 19 58 35 93
25 54 38 68 92 102 34 22 63 40 64 40 1 0 25 -12 53 -26z m-5254 -23 c156 -76
265 -240 277 -414 l5 -67 -62 5 c-33 3 -117 13 -186 22 -69 8 -138 16 -155 17
-16 0 -34 4 -40 7 -5 3 -19 4 -30 2 -59 -11 -139 -13 -125 -4 12 9 10 11 -10
11 -41 1 -52 13 -40 44 5 15 10 48 10 74 0 26 12 78 26 117 14 39 30 85 35
103 6 18 31 52 57 77 44 42 50 45 102 45 45 0 72 -8 136 -39z m4586 -7 c35
-11 57 -28 90 -67 65 -77 130 -167 150 -206 17 -34 34 -98 30 -114 -1 -4 4
-20 12 -35 8 -15 12 -39 11 -52 -2 -14 -7 -42 -10 -62 l-6 -37 -142 0 c-265
-1 -362 0 -394 5 -19 3 -36 0 -44 -9 -10 -10 -25 -11 -68 -5 -30 5 -56 10 -57
11 -1 2 10 84 24 172 5 28 14 60 20 72 7 12 12 36 12 53 0 17 11 58 25 92 14
34 25 67 25 75 0 7 21 36 48 63 37 39 57 52 92 59 53 11 117 5 182 -15z
m-5303 -40 c17 -10 31 -22 31 -27 0 -4 4 -6 9 -3 11 7 61 -49 95 -107 31 -52
63 -142 68 -189 l3 -33 -147 -2 c-108 -2 -149 1 -155 10 -4 6 -8 39 -9 72 -1
33 -9 111 -17 174 -19 150 -18 152 43 136 26 -7 62 -21 79 -31z m3926 -7 c-61
-37 -115 -122 -115 -184 0 -10 -3 -13 -9 -7 -12 12 -31 106 -31 149 0 34 1 35
43 36 23 1 56 5 72 9 47 12 63 11 40 -3z m2845 -72 c16 -8 34 -25 41 -36 6
-11 26 -37 44 -58 30 -33 34 -45 41 -116 7 -80 6 -286 -2 -294 -2 -2 -41 1
-86 7 -46 7 -135 12 -198 12 -64 0 -120 4 -125 9 -8 8 -53 17 -101 20 -13 1
-7 48 7 57 5 3 9 22 9 42 0 41 14 102 35 147 47 105 70 148 84 152 9 4 24 12
33 20 21 18 124 52 161 52 15 1 41 -6 57 -14z m-2609 -7 c48 -16 188 -103 229
-142 48 -45 106 -86 121 -86 7 0 10 -3 7 -6 -4 -3 -48 -7 -100 -10 -154 -6
-240 -14 -257 -23 -20 -11 -99 -21 -166 -22 -27 -1 -64 -6 -81 -12 -17 -5 -39
-7 -48 -4 -15 6 -15 10 -2 35 8 15 18 46 21 67 14 77 45 144 77 167 18 12 61
27 97 34 36 6 66 12 67 13 1 0 16 -4 35 -11z m-3864 -270 c-3 -8 -6 -5 -6 6
-1 11 2 17 5 13 3 -3 4 -12 1 -19z m-1260 -183 c3 -60 2 -107 -2 -103 -5 4 -9
47 -11 95 -2 47 -5 105 -8 127 -5 36 -5 38 5 16 6 -14 13 -74 16 -135z m-660
73 c-3 -7 -5 -2 -5 12 0 14 2 19 5 13 2 -7 2 -19 0 -25z m-2482 -198 c-10 -11
-21 -17 -24 -14 -3 3 3 12 13 20 28 20 32 17 11 -6z m11248 -467 c-7 -2 -19
-2 -25 0 -7 3 -2 5 12 5 14 0 19 -2 13 -5z m-4938 -43 c-3 -5 -13 -10 -21 -10
-8 0 -14 5 -14 10 0 6 9 10 21 10 11 0 17 -4 14 -10z"/>
<path d="M12210 5738 c-19 -4 -51 -10 -70 -13 -46 -8 -180 -75 -194 -97 -8
-14 -7 -22 7 -35 16 -17 21 -16 90 6 39 12 79 26 87 30 30 14 186 11 265 -4
140 -28 154 -29 162 -9 4 10 2 19 -5 22 -7 2 -12 9 -12 15 0 14 -55 60 -85 71
-46 17 -195 26 -245 14z"/>
<path d="M12190 5530 c-14 -4 -41 -8 -60 -9 -33 -1 -113 -26 -203 -64 -21 -9
-35 -11 -31 -5 11 18 -41 1 -82 -27 -20 -14 -40 -25 -44 -25 -4 0 -21 -18 -39
-41 -49 -61 -46 -139 12 -254 25 -50 91 -120 129 -136 15 -6 28 -15 28 -20 0
-4 9 -11 20 -14 11 -3 26 -12 32 -19 7 -6 31 -21 53 -31 49 -25 261 -34 340
-15 28 6 57 13 65 14 8 2 22 6 30 9 8 3 49 13 90 23 102 23 188 62 196 88 4
12 22 45 41 75 41 64 45 76 50 162 5 77 -20 153 -69 205 -30 33 -100 61 -106
44 -5 -13 -65 -13 -77 -1 -14 14 -238 51 -299 50 -28 -1 -62 -5 -76 -9z m105
-94 c95 -6 215 -19 279 -32 34 -6 35 -17 16 -89 -11 -38 -20 -94 -20 -122 0
-61 24 -130 48 -135 24 -6 -67 -51 -164 -81 -68 -22 -104 -26 -225 -29 l-144
-3 -95 49 c-116 58 -182 119 -210 194 -11 29 -20 59 -20 67 0 19 57 83 89 99
66 33 312 101 331 91 3 -2 55 -6 115 -9z"/>
<path d="M13357 5469 c-64 -13 -98 -26 -123 -46 -74 -62 -100 -78 -152 -99
-67 -28 -79 -43 -87 -122 -6 -57 -4 -69 24 -125 32 -65 112 -157 159 -181 75
-39 250 -17 519 65 81 24 179 98 204 153 30 67 17 226 -18 226 -7 0 -12 5 -10
12 1 6 -8 17 -20 23 -13 7 -31 19 -40 28 -16 14 -151 62 -199 71 -78 14 -177
12 -257 -5z m321 -93 c2 -2 -4 -15 -12 -28 -12 -19 -15 -39 -10 -87 6 -55 11
-65 40 -87 31 -24 49 -31 82 -33 21 -2 13 -17 -15 -31 -16 -8 -40 -22 -55 -32
-28 -19 -140 -59 -230 -83 -70 -18 -208 -29 -253 -21 -69 13 -154 133 -141
199 6 32 41 77 59 77 6 0 24 10 41 23 119 89 219 118 380 111 61 -2 112 -6
114 -8z"/>
<path d="M5342 1875 c0 -16 2 -22 5 -12 2 9 2 23 0 30 -3 6 -5 -1 -5 -18z"/>
<path d="M6853 1813 c9 -2 23 -2 30 0 6 3 -1 5 -18 5 -16 0 -22 -2 -12 -5z"/>
<path d="M11368 1663 c7 -3 16 -2 19 1 4 3 -2 6 -13 5 -11 0 -14 -3 -6 -6z"/>
<path d="M12968 963 c7 -3 16 -2 19 1 4 3 -2 6 -13 5 -11 0 -14 -3 -6 -6z"/>
</g>
</svg>
